# xmcd
#
# Track frame offsets: 
#        150
#        17426
#        30654
#        43791
#        56827
#        71798
#        81045
#        94785
#        107727
#        121810
#        136036
#        150220
#        164298
#        178682
#        192509
#        206880
#        221670
#        232223
#        244474
#        255178
#        265518
#        279097
#        293514
#        305072
#        318736
#
# Disc length: 4431 seconds
#
# Revision: 0
# Processed by: cddbd v1.5.2PL0 Copyright (c) Steve Scherf et al.
# Submitted via: ExactAudioCopy v1.0b1
#
DISCID=63114d19
DTITLE=Various Artist - Blues: The Vintage Collection - CD 3
DYEAR=2015
DGENRE=Blues
TTITLE0=The Red Rooster - Howlin’ Wolf
TTITLE1=Mannish Boy - Muddy Waters
TTITLE2=That’s All Right, Mama - Arthur ‘Big Boy’ Crudup
TTITLE3=Walk On - Sonny Terry And Brownie McGhee
TTITLE4=Man Of Constant Sorrow - Emry Arthur
TTITLE5=If It Ain’t Me (Who Are You Thinking Of?) - Jimmy Rogers
TTITLE6=Key To The Highway - Big Bill Broonzy
TTITLE7=Police Dog Blues - Blind Blake
TTITLE8=I Will Turn Your Money Green - Furry Lewis
TTITLE9=Drop Down Mama (I Don’t Feel Welcome Here) - Sleepy John Estes
TTITLE10=Blue And Evil Blues - Tampa Red
TTITLE11=Milk Cow Blues - Kokomo Arnold
TTITLE12=Barbecue Blues - Barbecue Bob
TTITLE13=Tomorrow Night - Lonnie Johnson
TTITLE14=Strange Fruit - Billie Holiday
TTITLE15=Baby Please Don’t Go - Muddy Waters
TTITLE16=Dusty Road - John Lee Hooker
TTITLE17=Gambler’s Blues - Dave Van Ronk
TTITLE18=Aw Shucks, Hush Your Mouth - Jimmy Reed
TTITLE19=Honeymoon Blues - Robert Johnson
TTITLE20=The Wolf Is At Your Door - Howlin’ Wolf
TTITLE21=I Believe - Elmore James
TTITLE22=Did You Ever Love A Woman - B.B. King
TTITLE23=All I Got Is Gone - Lightnin’ Hopkins
TTITLE24=Streamline Train - Alexis Korner Breakdown Group
EXTD=
EXTT0=
EXTT1=
EXTT2=
EXTT3=
EXTT4=
EXTT5=
EXTT6=
EXTT7=
EXTT8=
EXTT9=
EXTT10=
EXTT11=
EXTT12=
EXTT13=
EXTT14=
EXTT15=
EXTT16=
EXTT17=
EXTT18=
EXTT19=
EXTT20=
EXTT21=
EXTT22=
EXTT23=
EXTT24=
PLAYORDER=
